<svg version="1.0" xmlns="http://www.w3.org/2000/svg"
    width="3366.000000pt" height="803.000000pt" viewBox="0 0 3366.000000 803.000000"
    preserveAspectRatio="xMidYMid meet">

    <g transform="translate(0.000000,803.000000) scale(0.100000,-0.100000)"
        fill="#000000" stroke="none">
        <path
            d="M28915 6869 c-371 -32 -923 -185 -1407 -390 l-140 -58 -66 30 c-671
307 -1662 446 -2697 378 -1002 -65 -2110 -333 -2945 -711 -512 -232 -897 -485
-1205 -793 -315 -314 -468 -610 -469 -905 0 -208 74 -394 221 -551 184 -197
503 -328 928 -380 146 -18 551 -16 711 4 569 71 1070 267 1487 581 133 99 155
122 139 138 -15 15 -43 2 -112 -54 -82 -66 -232 -168 -345 -233 -542 -312
-1196 -428 -1865 -329 -286 43 -506 137 -662 283 -69 65 -86 87 -128 175 -58
120 -74 189 -73 316 1 293 160 579 509 921 818 798 2247 1359 3783 1484 843
69 1743 -24 2376 -245 94 -33 325 -139 325 -149 0 -3 -73 -43 -163 -88 -398
-201 -837 -490 -1359 -895 -356 -277 -613 -497 -1258 -1078 -677 -609 -950
-840 -1308 -1108 -598 -447 -1154 -746 -1768 -951 -370 -124 -718 -189 -1099
-207 -395 -18 -787 88 -960 261 -82 82 -110 140 -110 230 1 81 22 130 86 200
45 49 49 65 15 65 -32 0 -110 -86 -142 -155 -30 -65 -34 -156 -10 -224 77
-215 436 -387 901 -432 144 -14 441 -6 635 16 310 37 611 108 990 235 586 195
1079 439 1630 805 535 356 1019 751 1769 1445 146 135 362 335 480 444 581
537 867 774 1236 1022 150 101 370 237 498 308 l67 38 68 -48 c89 -63 248
-226 292 -299 58 -98 79 -176 80 -290 0 -221 -81 -393 -263 -559 -324 -296
-732 -525 -1145 -642 l-131 -38 -143 24 c-261 44 -620 30 -698 -29 -51 -38
-36 -73 44 -96 130 -39 394 -38 720 2 l139 17 54 -29 c65 -34 148 -122 164
-174 6 -21 10 -74 8 -117 -7 -149 -66 -228 -380 -516 -366 -335 -516 -500
-600 -663 -94 -180 -109 -347 -44 -475 145 -287 708 -330 1364 -105 619 212
1121 541 1328 868 68 108 86 249 43 345 -44 101 -140 164 -305 199 -96 21
-334 12 -468 -17 -181 -38 -487 -150 -487 -177 0 -22 15 -21 90 9 188 73 437
128 581 128 163 -1 308 -70 361 -173 61 -121 -32 -334 -242 -551 -177 -183
-376 -323 -660 -465 -425 -212 -904 -305 -1210 -235 -239 54 -300 253 -145
470 69 97 146 175 385 394 349 320 451 434 524 591 46 97 66 177 66 264 0 182
-87 329 -244 411 -31 16 -56 32 -56 35 0 3 35 13 78 23 465 108 907 300 1177
511 101 78 229 214 274 289 104 174 120 384 43 574 -76 186 -284 403 -517 539
-36 21 -65 42 -65 46 0 13 295 154 455 216 186 73 333 121 529 171 267 69 439
90 725 90 313 1 502 -32 654 -113 62 -33 79 -38 90 -28 33 34 -140 115 -324
152 -195 38 -464 48 -704 28z m-2860 -2445 c49 -8 91 -16 92 -18 6 -5 -105
-25 -211 -37 -183 -21 -445 0 -395 32 70 45 312 56 514 23z" />
        <path
            d="M18685 6780 c-603 -34 -1429 -266 -2217 -624 -950 -430 -1946 -1053
-3738 -2335 -1132 -810 -1691 -1169 -2225 -1431 -201 -98 -403 -185 -411 -177
-3 3 19 19 48 37 169 104 485 394 668 615 183 220 421 548 805 1110 447 653
672 955 994 1330 358 417 659 668 1019 849 l72 36 223 -11 c552 -27 1077 59
1077 176 0 51 -88 82 -255 91 -260 15 -627 -46 -985 -161 -137 -45 -71 -48
-815 36 -833 93 -1184 119 -1635 119 -1446 0 -2851 -346 -3697 -911 -366 -244
-622 -518 -733 -786 -56 -133 -72 -215 -73 -358 -2 -155 18 -239 88 -374 190
-364 606 -571 1255 -622 607 -48 1275 120 1810 454 151 94 280 195 280 218 0
27 -41 9 -132 -57 -581 -426 -1371 -637 -2013 -539 -463 71 -755 237 -889 506
-64 126 -80 209 -73 378 7 182 44 303 145 474 232 392 664 736 1262 1006 617
279 1322 459 2055 526 742 67 1309 43 2580 -109 314 -38 356 -45 331 -55 -652
-264 -1201 -704 -1676 -1341 -193 -259 -315 -455 -657 -1050 -361 -628 -499
-843 -707 -1104 -303 -381 -527 -544 -830 -607 -99 -20 -121 -33 -93 -53 19
-14 23 -14 177 16 485 94 1115 410 2015 1009 379 252 563 381 1290 899 1022
728 1557 1087 2170 1455 774 465 1471 802 2075 1004 872 292 1746 334 2193
104 259 -133 294 -285 111 -482 -62 -67 -72 -91 -38 -91 22 0 120 95 171 167
90 126 106 245 47 353 -118 216 -542 339 -1069 310z m-3867 -390 c40 -5 82
-15 94 -21 l22 -12 -23 -18 c-13 -10 -53 -28 -89 -39 -166 -51 -394 -72 -747
-68 -259 3 -260 3 -222 21 59 28 278 86 407 108 209 36 421 47 558 29z" />
        <path
            d="M2108 6582 c-48 -53 -129 -149 -179 -212 -51 -63 -95 -114 -100 -113
-5 2 -38 21 -74 43 -217 133 -497 240 -797 305 -160 34 -164 34 -172 -12 -3
-21 -9 -47 -12 -59 -5 -17 2 -24 43 -39 141 -52 345 -175 483 -290 400 -334
641 -806 716 -1402 l7 -53 -38 0 c-21 0 -85 7 -144 16 -524 77 -963 293 -1280
631 -142 151 -270 341 -333 496 -18 42 -37 77 -44 77 -7 0 -35 -5 -63 -12 -59
-13 -58 5 -5 -215 66 -271 172 -542 288 -733 l57 -94 -43 -36 c-76 -62 -301
-266 -356 -322 l-53 -55 66 -62 c87 -81 254 -224 332 -284 l61 -47 -49 -86
c-107 -186 -214 -460 -279 -714 -34 -132 -70 -324 -62 -331 8 -7 113 -31 117
-27 1 2 10 27 20 57 43 132 184 375 302 521 79 97 257 270 353 341 281 210
614 344 993 399 190 28 171 38 163 -81 -30 -463 -181 -898 -427 -1229 -80
-107 -239 -271 -341 -353 -95 -75 -257 -176 -344 -214 -70 -30 -72 -35 -50
-108 14 -47 9 -46 161 -9 297 73 609 206 822 349 l65 43 98 -116 c54 -65 138
-161 188 -214 l91 -97 63 67 c74 79 195 222 262 310 26 34 51 62 57 62 5 0 26
-11 47 -24 216 -136 648 -287 989 -345 122 -20 115 -24 127 60 l7 45 -88 34
c-239 90 -512 274 -693 467 -305 323 -493 726 -564 1214 -9 59 -16 120 -16
136 l0 29 88 -8 c408 -37 810 -197 1111 -441 254 -205 476 -509 596 -812 15
-38 29 -73 31 -77 2 -3 19 -3 37 2 17 4 44 11 58 14 l27 6 -15 77 c-69 380
-212 775 -368 1018 -20 31 -35 60 -33 64 2 4 57 53 123 108 147 124 309 273
313 289 3 13 -170 174 -320 296 l-96 79 51 82 c127 204 254 528 311 792 15 66
28 129 31 141 4 18 -3 22 -46 32 -28 7 -56 12 -63 12 -7 0 -27 -36 -45 -79
-38 -95 -140 -267 -216 -366 -338 -442 -849 -712 -1463 -775 -63 -7 -116 -10
-118 -7 -9 9 16 208 42 335 87 435 291 800 612 1094 151 139 353 271 531 349
53 23 98 43 100 45 2 2 -1 29 -8 60 l-13 56 -50 -6 c-84 -11 -325 -75 -460
-122 -219 -77 -435 -181 -587 -283 l-43 -29 -85 102 c-128 153 -296 336 -308
335 -5 0 -49 -44 -97 -97z m42 -374 l0 -221 -62 59 c-35 33 -82 75 -106 95
l-43 35 57 75 c65 83 145 179 150 179 2 0 4 -100 4 -222z m192 144 c31 -37 78
-93 104 -125 l48 -58 -65 -57 c-35 -31 -83 -76 -106 -100 l-43 -45 0 135 c0
74 -3 176 -6 226 -4 53 -3 92 2 91 5 0 34 -30 66 -67z m878 65 c0 -2 -37 -33
-82 -69 -104 -82 -274 -257 -356 -365 -176 -232 -304 -510 -376 -813 -27 -114
-56 -296 -56 -353 0 -47 -9 -67 -29 -67 -16 0 -18 27 -24 353 -4 193 -7 426
-7 517 l0 165 69 80 c174 202 435 377 766 516 102 43 95 40 95 36z m-1814 -82
c185 -78 359 -181 500 -296 88 -72 222 -213 240 -254 10 -23 15 -146 22 -530
7 -441 5 -532 -12 -514 -2 2 -12 58 -21 124 -81 596 -346 1102 -749 1432 -103
85 -101 83 -94 83 3 0 55 -20 114 -45z m-848 -1115 c355 -330 822 -533 1360
-592 79 -8 112 -16 112 -25 0 -11 -103 -13 -536 -13 l-537 0 -51 37 c-180 129
-327 310 -455 562 -51 99 -121 260 -121 277 0 2 34 -36 75 -85 42 -50 111
-122 153 -161z m3567 129 c-122 -286 -328 -571 -519 -718 l-53 -41 -541 0
c-331 0 -542 4 -542 9 0 6 19 12 43 15 391 45 594 94 857 210 264 116 549 332
725 549 33 40 61 70 63 67 1 -4 -14 -45 -33 -91z m-20 -661 l100 -83 -130 -6
c-72 -4 -172 -7 -223 -8 l-94 -1 96 102 c53 56 96 105 96 110 0 12 35 -13 155
-114z m-3465 -86 c-49 -1 -133 -1 -187 0 l-98 3 102 87 102 86 85 -86 85 -87
-89 -3z m3540 -147 c-20 -24 -236 -205 -245 -205 -4 0 -17 12 -29 28 -11 15
-51 62 -88 104 -81 92 -98 84 181 87 173 1 192 -1 181 -14z m-2150 -14 c0 -16
-9 -21 -47 -26 -494 -62 -826 -184 -1175 -431 -99 -70 -355 -322 -423 -416
-27 -37 -50 -66 -52 -64 -9 8 72 209 137 342 101 206 191 337 331 477 65 64
125 117 133 117 9 0 16 5 16 10 0 7 187 10 540 10 528 0 540 0 540 -19z m1582
-34 c204 -173 406 -488 533 -834 28 -76 31 -78 -72 53 -71 91 -239 260 -333
335 -216 174 -502 313 -797 389 -118 31 -359 70 -430 70 -36 0 -43 3 -43 20 0
20 7 20 540 20 l540 0 62 -53z m-2938 -29 c-27 -29 -63 -70 -80 -91 l-31 -38
-101 81 c-56 44 -104 85 -107 90 -4 6 63 10 181 10 l187 0 -49 -52z m1680
-145 c69 -679 374 -1255 859 -1620 48 -37 85 -68 83 -70 -7 -8 -253 90 -371
147 -66 32 -168 91 -228 130 -112 74 -273 219 -331 299 l-34 46 -6 405 c-3
223 -9 478 -12 568 -6 157 -6 162 14 162 17 0 21 -9 26 -67z m-170 20 c3 -21
8 -276 12 -568 l6 -530 -37 -55 c-133 -195 -339 -361 -617 -499 -212 -106
-219 -106 -108 -4 425 398 667 937 716 1601 7 96 18 118 28 55z m329 -1458
l47 -38 -27 -36 c-14 -20 -61 -78 -102 -130 l-76 -94 -6 89 c-4 49 -7 152 -8
229 l-1 139 63 -60 c34 -34 83 -78 110 -99z m-294 -175 l1 -115 -29 30 c-17
17 -63 70 -104 119 l-74 89 96 96 96 96 6 -100 c4 -55 7 -152 8 -215z" />
        <path
            d="M29301 3789 c-89 -17 -174 -88 -187 -154 -8 -45 10 -88 55 -132 20
-19 31 -37 25 -41 -5 -4 -74 -56 -153 -115 -79 -59 -177 -130 -217 -158 -76
-51 -93 -79 -50 -79 23 0 232 143 401 275 l80 63 75 -24 c203 -67 501 -101
775 -89 88 4 157 4 154 1 -3 -3 -150 -81 -325 -172 l-319 -166 -92 11 c-131
16 -291 14 -381 -5 -84 -17 -209 -65 -245 -94 -19 -16 -20 -19 -5 -25 9 -3 33
2 55 13 79 40 136 54 231 53 84 0 262 -28 262 -41 0 -3 -116 -64 -258 -136
l-257 -132 -101 -6 c-175 -10 -382 -58 -512 -116 -119 -54 -222 -142 -222
-189 0 -42 93 -54 203 -25 89 23 247 87 393 160 l129 64 210 -105 c116 -57
235 -111 265 -120 125 -37 330 -30 474 17 151 49 394 185 759 424 104 68 190
124 193 124 3 0 -9 -20 -26 -45 -45 -65 -87 -160 -107 -239 -19 -80 -9 -155
28 -208 54 -76 215 -106 397 -74 214 37 531 188 860 407 l132 89 -53 -65 c-88
-107 -137 -224 -123 -298 15 -82 105 -137 239 -145 264 -16 674 184 1352 657
220 154 247 177 225 191 -8 5 -18 10 -21 10 -3 0 -78 -50 -165 -111 -523 -367
-869 -569 -1129 -659 -93 -32 -194 -48 -239 -36 -37 9 -34 49 8 119 74 122
219 262 646 619 140 117 293 247 340 287 47 41 149 124 228 184 167 130 179
147 76 108 -81 -31 -214 -52 -336 -53 -130 -1 -105 12 -300 -150 -111 -92
-116 -95 -101 -60 25 60 13 119 -35 163 -102 95 -321 100 -667 15 -163 -40
-272 -78 -442 -151 -180 -78 -338 -172 -586 -349 -384 -274 -757 -515 -933
-604 -123 -62 -192 -82 -279 -82 -88 0 -105 6 -264 95 -129 72 -246 118 -345
136 -37 7 -63 16 -59 19 5 4 117 64 249 134 l242 126 121 -10 c206 -17 367 11
513 87 64 33 87 56 69 68 -5 3 -44 -13 -86 -34 -84 -43 -149 -61 -225 -61 -60
0 -202 20 -213 30 -4 4 113 70 260 147 448 235 421 223 573 249 213 36 460
128 509 190 43 54 -8 91 -103 73 -87 -16 -145 -39 -336 -131 l-185 -90 -295 5
c-346 6 -484 23 -707 89 l-72 21 34 40 c41 47 75 114 75 146 0 27 -42 71 -69
71 -11 0 -25 2 -33 4 -7 2 -33 0 -57 -5z m1689 -211 c-57 -48 -252 -119 -365
-132 -48 -6 -46 -4 65 51 144 70 234 103 285 102 l40 0 -25 -21z m1479 1 c66
-14 113 -47 125 -87 7 -27 4 -42 -23 -96 -71 -146 -494 -499 -887 -742 -178
-110 -431 -236 -553 -275 -122 -39 -266 -51 -306 -25 -55 36 -20 128 117 311
99 131 313 349 458 465 397 317 833 500 1069 449z m-3869 -1101 c-195 -94
-316 -140 -390 -146 l-64 -5 15 24 c38 59 208 145 344 174 33 8 96 13 140 13
l80 0 -125 -60z" />
        <path
            d="M18910 3741 c-169 -55 -385 -203 -499 -344 -41 -51 -63 -68 -109 -87
-172 -71 -503 -235 -622 -308 -14 -9 32 42 101 114 122 126 220 246 253 311 9
18 16 53 16 78 0 39 -5 52 -30 75 -39 36 -106 54 -183 48 -168 -15 -406 -140
-857 -453 -324 -225 -538 -354 -837 -504 -291 -145 -583 -255 -801 -301 -122
-26 -312 -37 -369 -21 -162 44 -104 251 137 493 76 75 105 98 131 102 318 47
507 90 746 167 383 124 622 249 672 353 26 52 22 77 -17 118 -44 47 -107 61
-251 55 -384 -15 -945 -228 -1401 -532 -269 -180 -432 -276 -675 -401 -450
-230 -795 -346 -1075 -361 -137 -7 -187 4 -224 48 -69 82 10 257 204 451 76
75 105 98 131 102 318 47 507 90 746 167 383 124 622 249 672 353 26 52 22 77
-17 118 -81 87 -356 76 -702 -29 -249 -75 -576 -215 -759 -324 -270 -163 -504
-390 -546 -533 -8 -27 -15 -79 -15 -116 0 -129 73 -218 214 -263 61 -19 93
-22 231 -22 138 1 176 5 277 28 245 58 507 153 784 287 141 68 413 213 484
259 28 19 26 15 -28 -61 -47 -66 -72 -144 -72 -226 0 -131 72 -220 214 -265
61 -19 93 -22 231 -22 138 1 176 5 277 28 331 78 709 232 1093 447 193 107
326 192 559 353 339 236 566 372 708 427 75 29 148 39 148 21 0 -32 -302 -309
-680 -623 -129 -107 -296 -248 -370 -313 -124 -108 -384 -321 -455 -372 -45
-32 -24 -38 49 -13 101 33 209 49 336 50 l115 0 270 225 c274 229 449 355 665
477 116 66 376 199 475 243 l53 23 -30 -64 c-53 -113 -50 -189 8 -254 127
-140 471 -112 816 67 130 68 179 105 160 125 -11 11 -19 9 -50 -8 -237 -135
-309 -168 -450 -206 -56 -15 -110 -21 -197 -22 -109 -1 -124 1 -169 24 -60 30
-86 63 -93 118 -8 57 33 137 111 219 60 63 63 65 211 118 319 116 511 236 503
316 -2 24 -10 37 -28 46 -35 18 -125 15 -190 -6z m-4235 -165 c111 -47 38
-153 -176 -258 -127 -63 -241 -108 -404 -163 -220 -73 -599 -161 -662 -153
-25 3 -17 11 82 84 331 242 664 426 883 485 83 22 229 25 277 5z m1890 0 c111
-47 38 -153 -176 -258 -127 -63 -241 -108 -404 -163 -220 -73 -599 -161 -662
-153 -25 3 -17 11 82 84 331 242 664 426 883 485 83 22 229 25 277 5z" />
    </g>
</svg>