<svg fill="#000000" viewBox="0 0 32 32" id="icon" xmlns="http://www.w3.org/2000/svg">
    <g id="SVGRepo_bgCarrier" stroke-width="0"></g>
    <g id="SVGRepo_tracerCarrier" stroke-linecap="round" stroke-linejoin="round"></g>
    <g id="SVGRepo_iconCarrier">
        <defs>
            <style>.cls-1{fill:none;}</style>
        </defs>
        <title>shopping--cart</title>
        <circle cx="10" cy="28" r="2"></circle>
        <circle cx="24" cy="28" r="2"></circle>
        <path
            d="M28,7H5.82L5,2.8A1,1,0,0,0,4,2H0V4H3.18L7,23.2A1,1,0,0,0,8,24H26V22H8.82L8,18H26a1,1,0,0,0,1-.78l2-9A1,1,0,0,0,28,7Zm-2.8,9H7.62L6.22,9H26.75Z"></path>
        <rect id="_Transparent_Rectangle_" class="cls-1"
            width="32" height="32"></rect>
    </g>
</svg>